<?xml version="1.0" encoding="UTF-8" standalone="no"?>
<!DOCTYPE svg PUBLIC "-//W3C//DTD SVG 1.1//EN" "http://www.w3.org/Graphics/SVG/1.1/DTD/svg11.dtd">
<svg width="100%" height="100%" viewBox="0 0 565 289" version="1.1" xmlns="http://www.w3.org/2000/svg" xmlns:xlink="http://www.w3.org/1999/xlink" xml:space="preserve" xmlns:serif="http://www.serif.com/" style="fill-rule:evenodd;clip-rule:evenodd;stroke-linejoin:round;stroke-miterlimit:2;">
    <g transform="matrix(1,0,0,1,-186.577,-130.805)">
        <g transform="matrix(1.06079,0,0,1.12279,473.429,323.286)">
            <text x="0px" y="0px" style="font-family:'Moon2.0-Regular', 'Moon 2.0';font-size:58.749px;fill:white;">W</text>
            <text x="59.748px" y="0px" style="font-family:'Moon2.0-Light', 'Moon 2.0';font-size:58.749px;fill:white;">A<tspan x="105.807px 151.925px 195.165px 232.47px " y="0px 0px 0px 0px ">GNER</tspan></text>
        </g>
        <g transform="matrix(5.19339,0,0,5.49693,-2030.24,-1299.9)">
            <text x="477.729px" y="284.594px" style="font-family:'Moon2.0-Light', 'Moon 2.0';font-size:12px;fill:white;">B<tspan x="485.961px 493.581px 502.413px 510.033px 518.457px 520.989px 528.657px " y="284.594px 284.594px 284.594px 284.594px 284.594px 284.594px 284.594px ">ENEDIKT</tspan></text>
        </g>
        <g transform="matrix(0.750069,0.66136,-0.66136,0.750069,274.56,-67.9166)">
            <path d="M372.273,197.512C372.273,169.615 349.624,146.967 321.728,146.967L213.364,146.967C185.467,146.967 162.818,169.615 162.818,197.512L162.818,298.603C162.818,326.5 185.467,349.148 213.364,349.148L321.728,349.148C349.624,349.148 372.273,326.5 372.273,298.603L372.273,197.512Z" style="fill:rgb(54,5,104);"/>
        </g>
        <g transform="matrix(0.750069,0.66136,-0.66136,0.750069,274.56,-87.9166)">
            <path d="M372.273,197.512C372.273,169.615 349.624,146.967 321.728,146.967L213.364,146.967C185.467,146.967 162.818,169.615 162.818,197.512L162.818,298.603C162.818,326.5 185.467,349.148 213.364,349.148L321.728,349.148C349.624,349.148 372.273,326.5 372.273,298.603L372.273,197.512Z" style="fill:rgb(119,133,172);"/>
        </g>
        <g transform="matrix(0.750069,0.66136,-0.66136,0.750069,274.56,-107.917)">
            <path d="M372.273,197.512C372.273,169.615 349.624,146.967 321.728,146.967L213.364,146.967C185.467,146.967 162.818,169.615 162.818,197.512L162.818,298.603C162.818,326.5 185.467,349.148 213.364,349.148L321.728,349.148C349.624,349.148 372.273,326.5 372.273,298.603L372.273,197.512Z" style="fill:rgb(154,198,197);"/>
        </g>
        <g transform="matrix(1.70885,-1.11022e-16,1.11022e-16,1.70885,-342.167,-569.196)">
            <text x="333.988px" y="503.389px" style="font-family:'Arial-BoldMT', 'Arial', sans-serif;font-weight:700;font-size:58.749px;fill:white;">&lt;<tspan x="374.172px 396.369px " y="503.389px 503.389px ">/&gt;</tspan></text>
        </g>
    </g>
</svg>
